<?xml version="1.0" standalone="no"?>
<!DOCTYPE svg PUBLIC "-//W3C//DTD SVG 20010904//EN"
 "http://www.w3.org/TR/2001/REC-SVG-20010904/DTD/svg10.dtd">
<svg version="1.0" xmlns="http://www.w3.org/2000/svg"
 width="1296.000000pt" height="1821.000000pt" viewBox="0 0 1296.000000 1821.000000"
 preserveAspectRatio="xMidYMid meet">

<g transform="translate(0.000000,1821.000000) scale(0.100000,-0.100000)"
fill="#000000" stroke="none">
<path d="M4588 17502 c-55 -86 -85 -152 -115 -249 -23 -78 -26 -104 -26 -233
0 -117 4 -160 22 -225 47 -175 151 -336 295 -457 72 -60 219 -139 300 -160 48
-13 48 -12 72 17 41 51 102 177 130 270 24 80 28 107 28 235 1 158 -11 221
-65 352 -84 203 -275 390 -479 467 -126 48 -120 48 -162 -17z"/>
<path d="M2391 14144 c-30 -8 -73 -23 -97 -33 -42 -19 -42 -19 -37 -63 8 -60
46 -169 79 -225 69 -120 218 -231 359 -268 116 -30 290 -16 391 33 36 17 36
17 29 67 -30 230 -218 436 -447 490 -79 18 -206 18 -277 -1z"/>
<path d="M12004 10880 c-28 -5 -79 -20 -115 -32 -75 -27 -80 -39 -54 -140 27
-109 71 -186 154 -268 175 -174 404 -224 634 -139 56 21 57 22 57 59 0 51 -35
163 -72 227 -41 72 -117 154 -190 202 -109 73 -290 113 -414 91z"/>
<path d="M6932 9570 l-94 -28 -66 18 c-37 10 -75 22 -84 25 -17 7 -18 -9 -18
-249 l0 -256 -441 0 -440 0 -1257 -301 c-691 -166 -1258 -302 -1259 -303 -4
-3 -1522 -4490 -1520 -4492 1 -1 1025 -659 2276 -1463 l2273 -1463 1887 758
c1037 416 1887 758 1888 759 1 0 288 1009 637 2241 l636 2239 -1013 1013
-1012 1012 -1142 0 -1143 0 0 260 c0 143 -3 260 -7 259 -5 0 -50 -14 -101 -29z
m-1244 -683 c23 -23 42 -49 42 -56 0 -15 -81 -323 -86 -330 -3 -4 -357 327
-362 339 -2 6 315 87 348 89 9 1 35 -18 58 -42z m3671 -24 c-21 -24 -37 -14
-41 27 l-3 39 27 -26 c21 -20 25 -30 17 -40z m-4066 -280 c121 -115 238 -224
260 -243 l40 -36 -47 -179 c-26 -99 -49 -188 -52 -197 -4 -13 -106 77 -417
369 -227 212 -413 390 -415 393 -3 8 346 97 386 99 18 1 80 -51 245 -206z
m4322 47 c67 -68 106 -113 100 -119 -32 -29 -318 -221 -323 -216 -6 5 -41 278
-42 322 0 17 19 36 72 73 39 27 74 50 77 50 4 0 56 -49 116 -110z m-4669 -454
c269 -252 488 -461 488 -465 -10 -55 -101 -380 -105 -378 -4 1 -287 265 -629
587 -342 322 -632 593 -643 602 -12 9 -19 19 -16 23 11 11 363 94 390 92 20
-2 149 -117 515 -461z m-416 -341 c387 -363 714 -669 727 -680 l25 -21 -50
-188 c-27 -103 -53 -190 -56 -194 -4 -3 -32 19 -64 50 -45 44 -1664 1560
-1695 1588 -8 7 387 110 404 106 4 0 323 -298 709 -661z m5452 428 l127 -128
-319 -222 c-175 -123 -323 -223 -328 -223 -7 0 -47 316 -47 375 0 15 58 61
215 172 118 83 217 152 220 152 3 1 62 -56 132 -126z m-5765 -865 c494 -463
899 -849 901 -858 3 -22 -91 -371 -101 -372 -13 0 -1827 1704 -1827 1717 0 13
105 329 115 345 3 5 8 10 10 10 3 0 409 -379 902 -842z m6260 346 c-19 -19
-949 -665 -951 -662 -2 2 -12 90 -24 197 -15 135 -19 198 -12 205 6 6 176 126
378 267 l367 257 127 -126 c100 -99 125 -129 115 -138z m-6402 -944 c490 -458
891 -834 893 -835 1 -2 -21 -91 -50 -199 l-52 -197 -50 49 c-28 27 -448 421
-933 876 -486 455 -883 831 -883 836 0 4 28 88 61 185 l62 176 31 -29 c17 -16
431 -404 921 -862z m6675 695 c75 -76 121 -128 114 -133 -6 -4 -293 -204 -638
-445 -345 -241 -629 -437 -631 -435 -9 11 -45 392 -37 400 19 19 1047 736
1057 737 6 1 66 -55 135 -124z m364 -364 c105 -106 108 -110 102 -144 -6 -33
-46 -62 -777 -572 -423 -296 -772 -536 -774 -534 -9 10 -47 391 -39 399 13 12
1368 959 1374 959 3 1 54 -48 114 -108z m-7186 -924 c485 -455 882 -833 882
-840 0 -7 -8 -41 -18 -76 l-18 -63 -112 -46 -113 -46 -42 41 c-32 30 -1617
1514 -1686 1579 -12 10 -4 41 50 197 l64 185 55 -52 c30 -28 452 -424 938
-879z m7122 193 l-74 -261 -590 -411 c-325 -227 -603 -421 -618 -432 -15 -11
-30 -17 -33 -15 -7 7 -47 356 -43 379 2 14 227 176 712 515 391 272 712 493
714 490 3 -2 -28 -122 -68 -265z m-7497 -572 c441 -413 806 -754 810 -758 8
-7 -327 -150 -350 -150 -10 0 -1129 1040 -1355 1259 l-38 36 63 182 c34 101
63 183 65 183 2 0 364 -338 805 -752z m-362 -393 c343 -321 625 -588 626 -592
2 -4 -76 -41 -173 -80 l-177 -73 -61 57 c-361 334 -966 908 -966 917 0 20 115
356 121 356 4 0 288 -263 630 -585z m7631 161 l-77 -268 -470 -328 c-258 -181
-471 -327 -472 -326 -6 6 -44 354 -41 378 3 23 78 79 568 421 311 217 566 394
567 393 1 -1 -33 -122 -75 -270z m-7962 -582 c228 -213 416 -391 418 -395 1
-3 -77 -38 -173 -78 -151 -61 -179 -70 -193 -59 -20 15 -472 438 -586 547
l-79 76 53 160 c29 88 57 171 62 184 l9 24 37 -35 c20 -19 224 -210 452 -424z
m2290 22 c0 -7 -163 -281 -174 -294 -10 -10 -27 25 -79 166 -37 98 -67 185
-67 192 0 7 9 28 21 46 l20 33 140 -69 c76 -39 139 -72 139 -74z m5484 -103
c-19 -65 -53 -185 -75 -266 l-42 -148 -321 -224 c-176 -123 -322 -222 -324
-220 -4 3 -36 272 -44 357 l-3 38 415 290 c228 159 418 290 421 290 4 0 -9
-53 -27 -117z m-5024 -171 c-12 -20 -108 -182 -213 -360 l-191 -322 -78 207
c-43 115 -76 216 -74 226 2 9 61 114 131 232 l127 214 160 -80 159 -80 -21
-37z m-3082 -167 c117 -109 209 -202 205 -205 -11 -9 -336 -140 -347 -140 -9
0 -31 19 -224 202 l-104 97 62 186 62 186 67 -63 c36 -35 162 -153 279 -263z
m3425 49 c83 -42 153 -78 155 -79 3 -3 -643 -1101 -657 -1117 -10 -12 -164
409 -157 428 4 10 57 103 120 208 62 105 172 291 245 414 72 122 134 222 136
222 3 0 74 -34 158 -76z m485 -242 l152 -77 -446 -755 c-246 -415 -450 -759
-454 -763 -9 -11 -164 408 -157 427 7 18 715 1215 730 1234 5 6 12 12 16 11 3
0 75 -35 159 -77z m-4328 -145 l91 -87 -35 -15 c-188 -79 -276 -113 -276 -107
0 4 23 76 51 160 38 113 54 150 64 145 7 -5 54 -47 105 -96z m4807 -95 l151
-77 -476 -805 c-262 -443 -519 -877 -571 -964 -63 -106 -96 -154 -101 -145
-14 25 -150 396 -150 409 0 19 974 1660 985 1659 6 0 78 -35 162 -77z m3463
-126 c-32 -112 -66 -232 -76 -266 l-19 -63 -169 -118 c-94 -65 -172 -116 -175
-114 -6 6 -51 388 -46 393 10 10 531 371 536 372 4 0 -20 -92 -51 -204z
m-2960 -403 c-881 -1490 -1249 -2108 -1255 -2106 -9 2 -155 389 -155 410 0 10
1129 1930 1206 2050 l14 23 160 -80 159 -80 -129 -217z m445 60 c85 -43 155
-82 154 -88 0 -5 -303 -521 -673 -1145 l-672 -1135 -179 -73 c-202 -82 -204
-82 -235 -1 l-17 46 731 1236 c402 680 732 1237 733 1237 2 0 73 -35 158 -77z
m480 -240 c86 -43 154 -83 153 -89 -2 -5 -230 -393 -507 -862 l-505 -851 -264
-106 c-145 -58 -266 -104 -268 -103 -3 4 1228 2088 1233 2088 2 0 73 -35 158
-77z m1860 -35 c-2 -7 -36 -125 -75 -263 -52 -184 -76 -255 -91 -267 -12 -10
-24 -18 -28 -18 -4 0 -16 89 -28 197 l-22 197 22 16 c113 80 213 149 219 150
4 0 5 -6 3 -12z m-1374 -204 c104 -51 149 -79 146 -88 -11 -28 -661 -1122
-676 -1138 -9 -9 -134 -64 -279 -121 l-263 -105 24 41 c117 209 881 1487 888
1487 5 0 77 -34 160 -76z m479 -239 c83 -41 150 -77 150 -79 0 -2 -82 -138
-182 -301 l-183 -297 -258 -105 c-143 -57 -260 -103 -261 -101 -2 2 466 797
553 941 6 9 16 17 21 17 6 0 78 -34 160 -75z m650 -330 c0 -2 -7 -2 -16 2 -10
4 -22 0 -28 -10 -10 -13 -535 -231 -542 -224 -2 1 54 93 123 204 l125 202 169
-85 c93 -46 169 -86 169 -89z"/>
</g>
</svg>
